<svg xmlns="http://www.w3.org/2000/svg" width="1400" height="560" viewBox="0 0 1400 560">
  <defs>
    <linearGradient id="bg" x1="0" x2="1" y1="0" y2="1">
      <stop offset="0%" stop-color="#faf5ff" />
      <stop offset="100%" stop-color="#ede9fe" />
    </linearGradient>
    <style>
      .title { font: 800 30px "Arial Rounded MT Bold", "Trebuchet MS", Arial, sans-serif; fill: #3b0764; }
      .card { fill: #ffffff; stroke: #3b0764; stroke-width: 2; rx: 18; ry: 18; }
      .label { font: 800 20px "Arial Rounded MT Bold", "Trebuchet MS", Arial, sans-serif; fill: #3b0764; }
      .text { font: 500 16px "Arial Rounded MT Bold", "Trebuchet MS", Arial, sans-serif; fill: #6b21a8; }
      .pill { font: 700 14px "Arial Rounded MT Bold", "Trebuchet MS", Arial, sans-serif; fill: #ffffff; }
      .icon { stroke: #ffffff; stroke-width: 2.4; fill: none; stroke-linecap: round; stroke-linejoin: round; }
    </style>
  </defs>

  <rect x="0" y="0" width="1400" height="560" fill="url(#bg)" />
  <text x="50" y="70" class="title">Config Files Cheat Sheet</text>

  <rect x="50" y="120" width="610" height="170" class="card" />
  <rect x="70" y="135" width="90" height="26" rx="13" ry="13" fill="#7c3aed" />
  <path class="icon" d="M78 148 L86 148 M82 144 L82 152" />
  <text x="98" y="154" class="pill">WEB</text>
  <text x="80" y="195" class="label">Dashboard</text>
  <text x="80" y="230" class="text">/opt/hetzner-web/config.yaml</text>
  <text x="80" y="255" class="text">/opt/hetzner-web/web_config.json</text>

  <rect x="740" y="120" width="610" height="170" class="card" />
  <rect x="760" y="135" width="150" height="26" rx="13" ry="13" fill="#a855f7" />
  <path class="icon" d="M768 148 L776 148 M772 144 L772 152" />
  <text x="792" y="154" class="pill">AUTOMATION</text>
  <text x="770" y="195" class="label">Monitor Service</text>
  <text x="770" y="230" class="text">/opt/hetzner-web/automation/config.yaml</text>

  <rect x="50" y="330" width="1300" height="170" class="card" />
  <rect x="70" y="345" width="120" height="26" rx="13" ry="13" fill="#c026d3" />
  <path class="icon" d="M78 358 A6 6 0 1 1 90 358 M90 358 L90 352" />
  <text x="100" y="364" class="pill">RESTART</text>
  <text x="80" y="405" class="label">After editing configs</text>
  <text x="80" y="440" class="text">Web: docker compose up -d --build</text>
  <text x="80" y="465" class="text">Automation: systemctl restart hetzner-monitor.service</text>
</svg>
