<svg xmlns="http://www.w3.org/2000/svg" width="1400" height="420" viewBox="0 0 1400 420">
  <defs>
    <linearGradient id="bg" x1="0" x2="1" y1="0" y2="1">
      <stop offset="0%" stop-color="#f5f3ff" />
      <stop offset="100%" stop-color="#ede9fe" />
    </linearGradient>
    <style>
      .card { fill: #ffffff; stroke: #3b0764; stroke-width: 2; rx: 18; ry: 18; }
      .title { font: 800 18px "Arial Rounded MT Bold", "Trebuchet MS", Arial, sans-serif; fill: #3b0764; }
      .text { font: 500 14px "Arial Rounded MT Bold", "Trebuchet MS", Arial, sans-serif; fill: #6b21a8; }
      .icon { stroke: #7c3aed; stroke-width: 2.5; fill: none; stroke-linecap: round; stroke-linejoin: round; }
    </style>
  </defs>

  <rect x="0" y="0" width="1400" height="420" fill="url(#bg)" />

  <rect x="40" y="60" width="320" height="300" class="card" />
  <circle cx="100" cy="120" r="26" fill="#ede9fe" />
  <path class="icon" d="M88 120h24M100 108v24" />
  <text x="60" y="185" class="title">Traffic Dashboard</text>
  <text x="60" y="215" class="text">Daily/hourly views</text>
  <text x="60" y="240" class="text">Trend sparklines</text>
  <text x="60" y="265" class="text">Clean charts</text>

  <rect x="390" y="60" width="320" height="300" class="card" />
  <circle cx="450" cy="120" r="26" fill="#ede9fe" />
  <path class="icon" d="M440 116h20M440 124h20" />
  <text x="410" y="185" class="title">Automation</text>
  <text x="410" y="215" class="text">Auto rebuild</text>
  <text x="410" y="240" class="text">Scheduled tasks</text>
  <text x="410" y="265" class="text">Systemd service</text>

  <rect x="740" y="60" width="320" height="300" class="card" />
  <circle cx="800" cy="120" r="26" fill="#ede9fe" />
  <path class="icon" d="M790 120h20M786 114h28" />
  <text x="760" y="185" class="title">Telegram Control</text>
  <text x="760" y="215" class="text">Alerts + commands</text>
  <text x="760" y="240" class="text">Traffic status</text>
  <text x="760" y="265" class="text">Rebuild actions</text>

  <rect x="1090" y="60" width="270" height="300" class="card" />
  <circle cx="1140" cy="120" r="26" fill="#ede9fe" />
  <path class="icon" d="M1132 118l8 8 12-12" />
  <text x="1110" y="185" class="title">DNS + Snapshots</text>
  <text x="1110" y="215" class="text">Cloudflare sync</text>
  <text x="1110" y="240" class="text">Snapshot rebuild</text>
  <text x="1110" y="265" class="text">Batch create</text>
</svg>
