<svg xmlns="http://www.w3.org/2000/svg" width="1400" height="640" viewBox="0 0 1400 640">
  <defs>
    <linearGradient id="bg" x1="0" x2="1" y1="0" y2="1">
      <stop offset="0%" stop-color="#0f172a" />
      <stop offset="100%" stop-color="#1e293b" />
    </linearGradient>
    <linearGradient id="glow" x1="0" x2="1" y1="0" y2="0">
      <stop offset="0%" stop-color="#22c55e" stop-opacity="0.2" />
      <stop offset="100%" stop-color="#38bdf8" stop-opacity="0.2" />
    </linearGradient>
    <style>
      .title { font: 800 32px Arial, sans-serif; fill: #e2e8f0; }
      .subtitle { font: 600 18px Arial, sans-serif; fill: #cbd5f5; }
      .card { fill: #0b1220; stroke: #334155; stroke-width: 2; rx: 18; ry: 18; }
      .step { font: 800 20px Arial, sans-serif; fill: #e2e8f0; }
      .text { font: 500 16px Arial, sans-serif; fill: #cbd5f5; }
      .badge { font: 800 16px Arial, sans-serif; fill: #0b1220; }
      .arrow { stroke: #94a3b8; stroke-width: 3; fill: none; marker-end: url(#arrow); }
    </style>
    <marker id="arrow" markerWidth="12" markerHeight="12" refX="10" refY="6" orient="auto">
      <path d="M0,0 L12,6 L0,12 Z" fill="#94a3b8" />
    </marker>
  </defs>

  <rect x="0" y="0" width="1400" height="640" fill="url(#bg)" />
  <rect x="40" y="40" width="1320" height="120" fill="url(#glow)" rx="20" ry="20" />

  <text x="70" y="90" class="title">Hetzner-Web All-in-One Setup</text>
  <text x="70" y="125" class="subtitle">One command, Web + automation + Telegram</text>

  <rect x="50" y="190" width="300" height="160" class="card" />
  <circle cx="90" cy="225" r="16" fill="#22c55e" />
  <text x="84" y="230" class="badge">1</text>
  <text x="120" y="230" class="step">Run script</text>
  <text x="80" y="265" class="text">install-all.sh</text>
  <text x="80" y="290" class="text">curl | sudo bash</text>

  <rect x="380" y="190" width="300" height="160" class="card" />
  <circle cx="420" cy="225" r="16" fill="#38bdf8" />
  <text x="414" y="230" class="badge">2</text>
  <text x="450" y="230" class="step">Auto setup</text>
  <text x="410" y="265" class="text">clone repo</text>
  <text x="410" y="290" class="text">start services</text>

  <rect x="710" y="190" width="300" height="160" class="card" />
  <circle cx="750" cy="225" r="16" fill="#f59e0b" />
  <text x="744" y="230" class="badge">3</text>
  <text x="780" y="230" class="step">Fill configs</text>
  <text x="740" y="265" class="text">config.yaml</text>
  <text x="740" y="290" class="text">automation/config.yaml</text>

  <rect x="1040" y="190" width="300" height="160" class="card" />
  <circle cx="1080" cy="225" r="16" fill="#ef4444" />
  <text x="1074" y="230" class="badge">4</text>
  <text x="1110" y="230" class="step">Restart</text>
  <text x="1070" y="265" class="text">docker compose</text>
  <text x="1070" y="290" class="text">systemctl restart</text>

  <path d="M350 270 L380 270" class="arrow" />
  <path d="M680 270 L710 270" class="arrow" />
  <path d="M1010 270 L1040 270" class="arrow" />

  <rect x="50" y="390" width="1290" height="200" class="card" />
  <text x="80" y="440" class="step">Open Dashboard</text>
  <text x="80" y="475" class="text">http://your-server-ip:1227</text>
  <text x="80" y="515" class="text">Telegram alerts: set bot_token + chat_id in automation/config.yaml</text>
</svg>
