<svg xmlns="http://www.w3.org/2000/svg" width="1400" height="380" viewBox="0 0 1400 380">
  <defs>
    <linearGradient id="bg" x1="0" x2="1" y1="0" y2="1">
      <stop offset="0%" stop-color="#f5f3ff" />
      <stop offset="100%" stop-color="#ede9fe" />
    </linearGradient>
    <style>
      .card { fill: #ffffff; stroke: #3b0764; stroke-width: 2; rx: 18; ry: 18; }
      .title { font: 800 18px "Arial Rounded MT Bold", "Trebuchet MS", Arial, sans-serif; fill: #3b0764; }
      .text { font: 500 14px "Arial Rounded MT Bold", "Trebuchet MS", Arial, sans-serif; fill: #6b21a8; }
      .icon { stroke: #7c3aed; stroke-width: 2.5; fill: none; stroke-linecap: round; stroke-linejoin: round; }
    </style>
  </defs>

  <rect x="0" y="0" width="1400" height="380" fill="url(#bg)" />

  <rect x="40" y="70" width="420" height="240" class="card" />
  <circle cx="100" cy="130" r="24" fill="#ede9fe" />
  <path class="icon" d="M92 130h16M100 122v16" />
  <text x="70" y="190" class="title">Traffic Guard</text>
  <text x="70" y="220" class="text">Watch caps, get alerts</text>
  <text x="70" y="245" class="text">Auto rebuild on exceed</text>

  <rect x="490" y="70" width="420" height="240" class="card" />
  <circle cx="550" cy="130" r="24" fill="#ede9fe" />
  <path class="icon" d="M540 130h20M545 124h10" />
  <text x="520" y="190" class="title">Nightly Ops</text>
  <text x="520" y="220" class="text">Scheduled delete/create</text>
  <text x="520" y="245" class="text">Snapshot based recovery</text>

  <rect x="940" y="70" width="420" height="240" class="card" />
  <circle cx="1000" cy="130" r="24" fill="#ede9fe" />
  <path class="icon" d="M990 130h20M988 124h24" />
  <text x="970" y="190" class="title">Telegram Ops</text>
  <text x="970" y="220" class="text">Query status on the go</text>
  <text x="970" y="245" class="text">Run rebuild commands</text>
</svg>
